<?xml version="1.0" encoding="iso-8859-1"?>
<!-- Generator: Adobe Illustrator 19.0.0, SVG Export Plug-In . SVG Version: 6.00 Build 0)  -->
<svg version="1.1" id="Layer_1" xmlns="http://www.w3.org/2000/svg" xmlns:xlink="http://www.w3.org/1999/xlink" x="0px" y="0px"
	 viewBox="0 0 512 512" style="enable-background:new 0 0 512 512;" xml:space="preserve">
<polygon style="fill:#FFAD61;" points="501.801,99.81 10.199,99.81 10.199,422.757 214.081,422.757 214.081,442.135 297.92,442.135 
	297.92,422.757 501.801,422.757 "/>
<g>
	<path style="fill:#FFE6B8;" d="M256,387.06H44.741V69.865h179.914c17.311,0,31.345,14.033,31.345,31.345V387.06z"/>
	<path style="fill:#FFE6B8;" d="M256,387.06h212.008V69.865H288.094C270.783,69.865,256,83.898,256,101.21V387.06z"/>
</g>
<circle style="fill:#D35B38;" cx="138.577" cy="306.486" r="37.737"/>
<g>
	<path style="fill:#4D3D36;" d="M501.801,89.611h-23.594V69.865c0-5.632-4.566-10.199-10.199-10.199H288.094
		c-12.778,0-24.241,5.603-32.003,14.43c-7.624-8.826-18.885-14.43-31.436-14.43H44.741c-5.633,0-10.199,4.567-10.199,10.199v19.747
		H10.199C4.566,89.611,0,94.178,0,99.81v322.947c0,5.632,4.566,10.199,10.199,10.199h193.682v9.179
		c0,5.632,4.566,10.199,10.199,10.199h83.838c5.633,0,10.199-4.567,10.199-10.199v-9.179h193.683
		c5.633,0,10.199-4.567,10.199-10.199V99.81C512,94.178,507.434,89.611,501.801,89.611z M288.094,80.064h169.715v296.797H266.199
		V101.209C266.199,89.747,276.226,80.064,288.094,80.064z M54.94,80.064h169.715c11.66,0,21.146,9.486,21.146,21.145v275.652H54.94
		V80.064z M468.008,397.259c5.633,0,10.199-4.567,10.199-10.199V110.01h13.395v302.548H297.92c-5.633,0-10.199,4.567-10.199,10.199
		v9.179h-63.44v-9.179c0-5.632-4.566-10.199-10.199-10.199H20.398V110.01h14.143v277.05c0,5.632,4.566,10.199,10.199,10.199H468.008
		z"/>
	<path style="fill:#4D3D36;" d="M194.669,193.275c-27.718,0-48.208,17.206-59.252,49.759c-1.863,5.492-3.293,10.962-4.395,16.116
		c-22.856,3.633-40.385,23.473-40.385,47.337c0,26.432,21.504,47.936,47.936,47.936s47.936-21.504,47.936-47.936
		c0-21.893-14.757-40.391-34.843-46.103c5.057-21.347,16.616-46.709,43.002-46.709c5.633,0,10.199-4.567,10.199-10.199
		S200.302,193.275,194.669,193.275z M166.111,306.486c0,15.185-12.353,27.538-27.538,27.538c-15.185,0-27.538-12.353-27.538-27.538
		c0-11.358,6.913-21.13,16.75-25.335c-0.381,4.623-0.427,7.547-0.431,7.875c-0.066,5.629,4.439,10.241,10.067,10.313
		c0.045,0.001,0.09,0.001,0.135,0.001c5.567,0,10.117-4.478,10.196-10.061c0.002-0.155,0.071-3.434,0.57-8.543
		C158.708,284.682,166.111,294.734,166.111,306.486z"/>
	<path style="fill:#4D3D36;" d="M208.948,106.582H90.637c-5.633,0-10.199,4.567-10.199,10.199c0,5.632,4.566,10.199,10.199,10.199
		h118.311c5.633,0,10.199-4.567,10.199-10.199C219.147,111.149,214.581,106.582,208.948,106.582z"/>
	<path style="fill:#4D3D36;" d="M208.948,146.359H90.637c-5.633,0-10.199,4.567-10.199,10.199s4.566,10.199,10.199,10.199h118.311
		c5.633,0,10.199-4.567,10.199-10.199S214.581,146.359,208.948,146.359z"/>
	<path style="fill:#4D3D36;" d="M303.801,126.98h118.311c5.633,0,10.199-4.567,10.199-10.199c0-5.632-4.566-10.199-10.199-10.199
		H303.801c-5.633,0-10.199,4.567-10.199,10.199C293.601,122.413,298.168,126.98,303.801,126.98z"/>
	<path style="fill:#4D3D36;" d="M303.801,166.757h118.311c5.633,0,10.199-4.567,10.199-10.199s-4.566-10.199-10.199-10.199H303.801
		c-5.633,0-10.199,4.567-10.199,10.199S298.168,166.757,303.801,166.757z"/>
	<path style="fill:#4D3D36;" d="M303.801,207.554h118.311c5.633,0,10.199-4.567,10.199-10.199s-4.566-10.199-10.199-10.199H303.801
		c-5.633,0-10.199,4.567-10.199,10.199S298.168,207.554,303.801,207.554z"/>
	<path style="fill:#4D3D36;" d="M422.111,226.932h-3.06c-5.633,0-10.199,4.567-10.199,10.199s4.566,10.199,10.199,10.199h3.06
		c5.633,0,10.199-4.567,10.199-10.199S427.744,226.932,422.111,226.932z"/>
	<path style="fill:#4D3D36;" d="M303.801,247.331h81.594c5.633,0,10.199-4.567,10.199-10.199s-4.566-10.199-10.199-10.199h-81.594
		c-5.633,0-10.199,4.567-10.199,10.199S298.168,247.331,303.801,247.331z"/>
</g>
<g>
</g>
<g>
</g>
<g>
</g>
<g>
</g>
<g>
</g>
<g>
</g>
<g>
</g>
<g>
</g>
<g>
</g>
<g>
</g>
<g>
</g>
<g>
</g>
<g>
</g>
<g>
</g>
<g>
</g>
</svg>
